#!OML:ASF F:\VICON\USERDATA\INSTALL\rory3\rory3.ASF
:FULLY-SPECIFIED
:DEGREES
975
root 0.646625 16.281 -0.878382 -149.878 -0.452702 180.271
lowerback -11.1407 3.95449 1.31686
upperback -18.4063 0.68724 -2.48122
thorax -14.0665 -1.97706 -3.02793
lowerneck -7.69249 0.935081 -1.52528
upperneck 26.8111 -2.05484 5.74791
head 9.80088 -1.3505 1.90829
rclavicle -1.33186e-014 2.82274e-014
rhumerus -225.045 -180.969 160.561
rradius 98.984
rwrist 12.8921
rhand -30.9858 51.6794
rfingers 7.12502
rthumb -4.2694 21.7424
lclavicle -1.33186e-014 2.82274e-014
lhumerus -40.2084 -5.01921 9.56846
lradius 96.871
lwrist -35.8912
lhand -35.8601 2.40386
lfingers 7.12502
lthumb -8.9748 32.193
rfemur -42.3777 14.6607 27.1376
rtibia 40.2268
rfoot -38.155 -30.3712
rtoes 19.2413
lfemur -94.2601 34.2666 -46.7865
ltibia 101.594
lfoot -19.9035 54.2732
ltoes 51.425
976
root 0.648567 16.2658 -0.871551 -149.626 -0.751786 180.435
lowerback -11.1418 3.90264 1.70579
upperback -18.383 0.625506 -2.46181
thorax -14.0304 -2.05184 -3.22352
lowerneck -7.35472 0.531166 -1.59839
upperneck 23.2714 -1.83526 5.70454
head 8.48774 -1.07775 1.92406
rclavicle -8.44835e-015 1.98785e-015
rhumerus -228.24 -179.366 159.922
rradius 95.735
rwrist 11.9155
rhand -30.3669 52.8967
rfingers 7.12502
rthumb -3.67178 22.9486
lclavicle -8.44835e-015 1.98785e-015
lhumerus -43.3939 -4.06853 10.9799
lradius 94.1941
lwrist -35.5633
lhand -36.2069 1.69896
lfingers 7.12502
lthumb -9.30949 31.4734
rfemur -42.671 13.8007 27.6957
rtibia 40.4816
rfoot -38.3946 -29.1034
rtoes 20.5526
lfemur -94.3494 34.2037 -46.3483
ltibia 101.715
lfoot -26.4299 51.985
ltoes 51.7813
977
root 0.650852 16.2654 -0.861146 -149.298 -0.998503 180.357
lowerback -11.015 3.87083 1.86803
upperback -18.4848 0.534677 -2.57765
thorax -14.2468 -2.15204 -3.43825
lowerneck -6.14439 0.275907 -1.69797
upperneck 18.9795 -1.5147 5.92902
head 6.83872 -0.789494 2.02819
rclavicle 1.41137e-014 -2.5842e-014
rhumerus -231.569 -178.344 159.091
rradius 92.7646
rwrist 10.1323
rhand -30.7054 54.1743
rfingers 7.12502
rthumb -3.99866 24.2321
lclavicle 1.41137e-014 -2.5842e-014
lhumerus -46.1764 -3.10515 12.1248
lradius 91.3269
lwrist -35.2666
lhand -36.4451 1.42307
lfingers 7.12502
lthumb -9.53932 31.1871
rfemur -42.9388 12.1512 28.2657
rtibia 40.6946
rfoot -38.2246 -27.1879
rtoes 21.608
lfemur -94.6596 34.0193 -46.6029
ltibia 101.654
lfoot -30.3561 50.4709
ltoes 51.9279
978
root 0.658165 16.2665 -0.842462 -149.078 -1.17313 180.17
lowerback -10.5889 3.76728 1.86542
upperback -18.5896 0.368081 -2.70408
thorax -14.6622 -2.2649 -3.57295
lowerneck -5.04412 0.0609228 -1.52563
upperneck 14.7428 -1.24408 5.93402
head 5.30107 -0.570037 2.00383
rclavicle 1.98785e-015 -7.15625e-015
rhumerus -234.436 -177.425 157.967
rradius 89.6216
rwrist 8.14101
rhand -31.1982 55.1418
rfingers 7.12502
rthumb -4.47448 25.2091
lclavicle 1.98785e-015 -7.15625e-015
lhumerus -48.6709 -2.01922 12.8645
lradius 88.4605
lwrist -35.1154
lhand -36.4688 3.60683
lfingers 7.12502
lthumb -9.56218 33.3698
rfemur -43.3517 12.0561 28.0991
rtibia 40.805
rfoot -38.2827 -27.2338
rtoes 21.6061
lfemur -95.1419 33.9068 -47.1859
ltibia 101.53
lfoot -32.0673 50.1838
ltoes 51.859
979
root 0.664041 16.2566 -0.82935 -149.035 -1.25652 180.167
lowerback -10.1406 3.64303 1.94212
upperback -18.6301 0.212122 -2.70686
thorax -15.0049 -2.35557 -3.61431
lowerneck -4.45804 -0.124401 -1.24045
upperneck 10.7259 -1.02442 5.56163
head 4.39448 -0.445595 2.04526
rclavicle -1.04362e-014 7.95139e-015
rhumerus -236.821 -176.772 156.884
rradius 86.0874
rwrist 6.4857
rhand -31.8904 56.1629
rfingers 7.12502
rthumb -5.14288 26.2453
lclavicle -1.04362e-014 7.95139e-015
lhumerus -51.0582 -0.674584 13.3241
lradius 85.3375
lwrist -35.279
lhand -36.1564 4.57811
lfingers 7.12502
lthumb -9.26069 34.3547
rfemur -43.7017 12.4092 27.9026
rtibia 40.7963
rfoot -37.8704 -28.112
rtoes 20.9576
lfemur -95.6081 34.0304 -47.6602
ltibia 101.429
lfoot -32.5674 50.4837
ltoes 51.7071
980
root 0.667001 16.2448 -0.816973 -148.968 -1.39728 180.529
lowerback -9.88526 3.57918 2.43442
upperback -18.5931 0.171667 -2.60577
thorax -15.1085 -2.42105 -3.77574
lowerneck -4.10081 -0.209096 -1.13717
upperneck 7.24826 -0.81139 5.55016
head 3.0913 -0.316409 1.98082
rclavicle 1.19271e-014 -9.54166e-015
rhumerus -238.861 -176.143 155.862
rradius 82.4032
rwrist 5.06951
rhand -32.3795 56.4843
rfingers 7.12502
rthumb -5.6151 26.5787
lclavicle 1.19271e-014 -9.54166e-015
lhumerus -53.0663 0.968422 13.6295
lradius 81.8523
lwrist -35.25
lhand -35.5144 2.58171
lfingers 7.12502
lthumb -8.64118 32.3849
rfemur -43.9085 12.402 28.3102
rtibia 40.7435
rfoot -37.3679 -28.3863
rtoes 20.53
lfemur -96.2331 34.2126 -47.7121
ltibia 101.418
lfoot -32.5185 50.774
ltoes 51.6605
981
root 0.67121 16.2382 -0.800053 -148.957 -1.56772 180.683
lowerback -9.4416 3.4466 2.6789
upperback -18.5874 0.0473465 -2.48478
thorax -15.3846 -2.49375 -3.77176
lowerneck -3.80494 -0.186566 -1.27158
upperneck 3.93577 -0.547441 5.68798
head 1.92407 -0.202363 2.01749
rclavicle -8.94531e-015 -4.77083e-015
rhumerus -240.373 -175.435 155.06
rradius 78.4513
rwrist 3.84714
rhand -32.0391 56.1373
rfingers 7.12502
rthumb -5.2865 26.2232
lclavicle -8.94531e-015 -4.77083e-015
lhumerus -54.9471 2.37072 13.901
lradius 78.2028
lwrist -35.1398
lhand -35.2233 1.51709
lfingers 7.12502
lthumb -8.36024 31.3316
rfemur -44.035 12.3785 28.5176
rtibia 40.684
rfoot -36.9902 -28.7492
rtoes 20.4387
lfemur -96.6669 34.2601 -47.8621
ltibia 101.308
lfoot -30.9028 51.8113
ltoes 51.6395
982
root 0.672918 16.2238 -0.778236 -149.047 -1.81943 180.709
lowerback -8.65369 3.3654 2.84574
upperback -18.8831 -0.123694 -2.45914
thorax -16.2989 -2.65717 -3.8074
lowerneck -2.8857 -0.100543 -1.4939
upperneck 0.963742 -0.291425 6.04817
head 0.806069 -0.13013 2.15058
rclavicle 6.16232e-015 7.15625e-015
rhumerus -242.058 -175.197 154.631
rradius 74.2491
rwrist 3.40197
rhand -31.1111 55.7451
rfingers 7.12502
rthumb -4.39042 25.8106
lclavicle 6.16232e-015 7.15625e-015
lhumerus -56.7163 2.72671 14.144
lradius 74.6088
lwrist -34.7229
lhand -34.6192 2.36233
lfingers 7.12502
lthumb -7.77727 32.1993
rfemur -44.1146 12.0295 28.7205
rtibia 40.6815
rfoot -36.5 -29.0672
rtoes 20.6167
lfemur -96.2451 34.25 -47.4445
ltibia 101.217
lfoot -36.0116 49.009
ltoes 51.3754
983
root 0.678494 16.225 -0.762527 -149.082 -2.03884 180.782
lowerback -7.96549 3.39793 2.98655
upperback -19.4344 -0.287289 -2.49412
thorax -17.5291 -2.89241 -3.87185
lowerneck -0.893352 0.0190127 -1.55048
upperneck -2.13636 -0.0101013 6.31073
head -0.513593 -0.0855987 2.24483
rclavicle 3.37934e-015 2.38542e-015
rhumerus -243.925 -175.417 154.539
rradius 69.9887
rwrist 3.63948
rhand -30.1638 55.2799
rfingers 7.12502
rthumb -3.47568 25.3285
lclavicle 3.37934e-015 2.38542e-015
lhumerus -58.3154 2.29759 14.2886
lradius 71.0089
lwrist -33.373
lhand -33.7245 3.21041
lfingers 7.12502
lthumb -6.91364 33.0775
rfemur -44.1475 11.3792 29.101
rtibia 40.6818
rfoot -36.1596 -28.5606
rtoes 21.0321
lfemur -96.6485 34.2414 -47.7692
ltibia 100.972
lfoot -33.1358 51.0538
ltoes 51.2434
984
root 0.685702 16.218 -0.742148 -149.117 -2.26927 181.093
lowerback -7.57407 3.24768 3.37063
upperback -19.146 -0.271147 -2.31421
thorax -17.3717 -2.83744 -3.90195
lowerneck -1.523 0.0327555 -1.75113
upperneck -5.01106 0.0429875 6.33815
head -1.31501 -0.138083 2.30979
rclavicle 2.48481e-015 2.18663e-014
rhumerus -244.631 -173.57 154.748
rradius 65.6291
rwrist 4.57423
rhand -30.0106 54.8754
rfingers 7.12502
rthumb -3.3277 24.9217
lclavicle 2.48481e-015 2.18663e-014
lhumerus -59.0296 4.01579 14.4815
lradius 66.9765
lwrist -32.3793
lhand -33.135 2.88524
lfingers 7.12502
lthumb -6.34456 32.7702
rfemur -44.1619 11.1373 29.6419
rtibia 40.6834
rfoot -36.1454 -27.8528
rtoes 21.4053
lfemur -97.2166 34.3178 -47.7721
ltibia 100.907
lfoot -30.9617 52.1945
ltoes 51.5418
